# xmcd
#
# Track frame offsets: 
#        150
#        26114
#        52177
#
# Disc length: 1166 seconds
#
# Revision: 0
# Processed by: cddbd v1.4PL0 Copyright (c) Steve Scherf et al.
# Submitted via: ExactAudioCopy v0.95a3
#
DISCID=25048c03
DTITLE=Dan and Al - The Fang
DYEAR=1999
DGENRE=Blues
TTITLE0=The Fang
TTITLE1=The Fang (Live at the Espy)
TTITLE2=The Fang (Live at the G.B.)
EXTD=
EXTT0=
EXTT1=
EXTT2=
PLAYORDER=
